<?xml version="1.0" encoding="UTF-8"?>
<svg width="600" height="400" viewBox="0 0 600 400" fill="none" xmlns="http://www.w3.org/2000/svg">
  <rect width="600" height="400" rx="8" fill="#F0F4FF"/>
  <rect x="50" y="50" width="500" height="300" rx="4" fill="white" stroke="#E2E8F0"/>
  
  <!-- Header -->
  <rect x="100" y="80" width="200" height="16" rx="2" fill="#3B82F6"/>
  <rect x="100" y="104" width="150" height="8" rx="2" fill="#93C5FD"/>
  
  <!-- Contact Info -->
  <rect x="400" y="80" width="100" height="8" rx="2" fill="#CBD5E1"/>
  <rect x="400" y="96" width="100" height="8" rx="2" fill="#CBD5E1"/>
  <rect x="400" y="112" width="100" height="8" rx="2" fill="#CBD5E1"/>
  
  <!-- Experience Section -->
  <rect x="100" y="150" width="120" height="12" rx="2" fill="#3B82F6"/>
  <rect x="100" y="170" width="400" height="1" fill="#E2E8F0"/>
  
  <rect x="100" y="180" width="150" height="10" rx="2" fill="#64748B"/>
  <rect x="100" y="196" width="100" height="8" rx="2" fill="#94A3B8"/>
  <rect x="400" y="180" width="100" height="8" rx="2" fill="#CBD5E1"/>
  <rect x="100" y="212" width="350" height="6" rx="2" fill="#E2E8F0"/>
  <rect x="100" y="224" width="350" height="6" rx="2" fill="#E2E8F0"/>
  
  <rect x="100" y="240" width="150" height="10" rx="2" fill="#64748B"/>
  <rect x="100" y="256" width="100" height="8" rx="2" fill="#94A3B8"/>
  <rect x="400" y="240" width="100" height="8" rx="2" fill="#CBD5E1"/>
  <rect x="100" y="272" width="350" height="6" rx="2" fill="#E2E8F0"/>
  <rect x="100" y="284" width="350" height="6" rx="2" fill="#E2E8F0"/>
  
  <!-- Skills Section -->
  <rect x="100" y="310" width="120" height="12" rx="2" fill="#3B82F6"/>
  <rect x="100" y="330" width="400" height="1" fill="#E2E8F0"/>
  <rect x="100" y="340" width="400" height="8" rx="2" fill="#E2E8F0"/>
</svg>
